<?xml version="1.0" encoding="UTF-8" standalone="no"?>
<!-- Generator: Adobe Illustrator 21.0.0, SVG Export Plug-In . SVG Version: 6.00 Build 0)  -->

<svg
   xmlns:dc="http://purl.org/dc/elements/1.1/"
   xmlns:cc="http://creativecommons.org/ns#"
   xmlns:rdf="http://www.w3.org/1999/02/22-rdf-syntax-ns#"
   xmlns:svg="http://www.w3.org/2000/svg"
   xmlns="http://www.w3.org/2000/svg"
   xmlns:sodipodi="http://sodipodi.sourceforge.net/DTD/sodipodi-0.dtd"
   xmlns:inkscape="http://www.inkscape.org/namespaces/inkscape"
   version="1.1"
   id="Layer_1"
   x="0px"
   y="0px"
   viewBox="0 0 170 90.7"
   style="enable-background:new 0 0 170 90.7;"
   xml:space="preserve"
   sodipodi:docname="_worten_escuro_59ca2c633f83f.svg"
   inkscape:version="0.92.3 (2405546, 2018-03-11)"><metadata
   id="metadata11"><rdf:RDF><cc:Work
       rdf:about=""><dc:format>image/svg+xml</dc:format><dc:type
         rdf:resource="http://purl.org/dc/dcmitype/StillImage" /><dc:title></dc:title></cc:Work></rdf:RDF></metadata><defs
   id="defs9" /><sodipodi:namedview
   pagecolor="#ffffff"
   bordercolor="#666666"
   borderopacity="1"
   objecttolerance="10"
   gridtolerance="10"
   guidetolerance="10"
   inkscape:pageopacity="0"
   inkscape:pageshadow="2"
   inkscape:window-width="1920"
   inkscape:window-height="1017"
   id="namedview7"
   showgrid="false"
   inkscape:zoom="1.6705882"
   inkscape:cx="85"
   inkscape:cy="45.349998"
   inkscape:window-x="-6"
   inkscape:window-y="-8"
   inkscape:window-maximized="1"
   inkscape:current-layer="Layer_1" />
<style
   type="text/css"
   id="style2">
	.st0{fill:#494949;}
</style>
<path
   class="st0"
   d="M28.3,47.6L23.1,56c-0.7,1.2-3.4,5.3-3.4,5.3S17,57.2,16.2,56L7.1,41.9c-1.2-1.9-0.7-4.4,1.2-5.6  c1.9-1.2,4.4-0.7,5.6,1.2l5.6,8.7l5.4-8.7c0.7-1.2,2-1.9,3.4-1.9l0,0c1.4,0,2.6,0.7,3.4,1.8l5.6,8.7l5.4-8.7  c1.2-1.9,3.7-2.5,5.6-1.3c1.9,1.2,2.5,3.7,1.3,5.6L37.2,61.1L28.3,47.6z M76.3,48.5c0-7-5.8-12.6-13-12.6s-13,5.7-13,12.6  s5.8,12.6,13,12.6S76.3,55.5,76.3,48.5z M69.5,48.5c0,2.7-2.1,6.6-6.2,6.6c-3.8,0-6.2-3.9-6.2-6.6s2.2-6.8,6.2-6.8  C67.9,41.7,69.5,45.8,69.5,48.5z M86.3,44.6c0-0.9,0.4-2.1,1.9-2.1h4.9v-6.2h-4.9c-5.3,0-9,3.6-9,9v15.1h7.1V44.6z M104.6,54.3  c-1.1,0-2-0.9-2-2v-3v-6.6h3.9l0,0c1.7,0,3.1-1.4,3.1-3.2c0-1.7-1.4-3.1-3.1-3.2l0,0h-3.9v-3.8l0,0c-0.1-1.7-1.6-3.1-3.3-3.1  s-3.2,1.4-3.3,3.1l0,0v15.4v4.5v0.1c0,4.5,3.6,8.2,8.2,8.2h5.2h0.2v-6.3h-1.5h-3.5V54.3z M135.1,53.4c-1.9,4.5-6.4,7.7-11.7,7.7  c-7,0-12.7-5.7-12.7-12.6c0-7,5.7-12.6,12.7-12.6S136,41.6,136,48.5c0,0.7-0.1,1.3-0.2,2h-6.4h-3.9h-8.3c0.7,2.5,2.7,5,6,5  c2.4,0,3.9-0.9,4.8-2.1H135.1z M117.6,45.5h11.6c-0.8-2.2-2.6-4.1-5.8-4.1C120.1,41.4,118.3,43.3,117.6,45.5z M151,35.7  c-6.9,0-12.5,5.6-12.5,12.5v12.2h7.2V48.3c0-3.1,2.4-5.7,5.3-5.7s5.3,2.5,5.3,5.7v12.2h7.2V48.3C163.5,41.3,157.9,35.7,151,35.7z"
   id="path4"
   style="fill:#d9352c;fill-opacity:1" />
</svg>